<svg xmlns="http://www.w3.org/2000/svg" width="18.134" height="18.134" viewBox="0 0 18.134 18.134">
  <path id="Icon_open-magnifying-glass" data-name="Icon open-magnifying-glass" d="M7.862-.023a7.862,7.862,0,1,0,0,15.725,7.771,7.771,0,0,0,3.729-.921,2.246,2.246,0,0,0,.292.292L14.13,17.32a2.291,2.291,0,1,0,3.235-3.235l-2.246-2.246a2.246,2.246,0,0,0-.359-.292,7.757,7.757,0,0,0,.988-3.729A7.871,7.871,0,0,0,7.885-.045Zm0,2.246A5.589,5.589,0,0,1,13.478,7.84,5.633,5.633,0,0,1,12,11.7l-.067.067a2.246,2.246,0,0,0-.292.292,5.621,5.621,0,0,1-3.8,1.415,5.616,5.616,0,1,1,0-11.232Z" transform="translate(0 0.045)" fill="#46413c"/>
</svg>
