<svg xmlns="http://www.w3.org/2000/svg" width="20.07" height="19.998" viewBox="0 0 20.07 19.998">
  <path id="Icon_awesome-info-circle" data-name="Icon awesome-info-circle" d="M10.6.563a10,10,0,1,0,10.035,10A10.019,10.019,0,0,0,10.6.563ZM10.6,5A1.693,1.693,0,1,1,8.9,6.691,1.7,1.7,0,0,1,10.6,5Zm2.266,10.241a.485.485,0,0,1-.486.484H8.817a.485.485,0,0,1-.486-.484v-.968a.485.485,0,0,1,.486-.484H9.3v-2.58H8.817a.485.485,0,0,1-.486-.484V9.755a.485.485,0,0,1,.486-.484h2.59a.485.485,0,0,1,.486.484v4.032h.486a.485.485,0,0,1,.486.484Z" transform="translate(-0.563 -0.563)" fill="#46413c"/>
</svg>
